<svg width="467" height="468" viewBox="0 0 467 468" fill="none" xmlns="http://www.w3.org/2000/svg">
<g clip-path="url(#clip0_206_1700)">
<path d="M44.866 393.91L40.757 377.716C33.4717 374.631 26.018 371.959 18.4315 369.712L17.9128 377.238L15.8095 368.947C6.40083 366.259 0 365.077 0 365.077C0 365.077 8.64385 397.93 26.7797 423.046L47.9095 426.755L31.4943 429.12C33.7756 431.863 36.2272 434.46 38.8347 436.895C65.2141 461.363 94.5964 472.589 104.461 461.969C114.326 451.349 100.938 422.905 74.5583 398.44C66.3804 390.855 56.1074 384.768 45.8237 379.976L44.866 393.91Z" fill="#F2F2F2"/>
<path d="M83.9424 376.321L88.8017 360.336C84.1615 353.932 79.1636 347.795 73.8316 341.953L69.4946 348.128L71.9826 339.943C65.3174 332.785 60.4499 328.467 60.4499 328.467C60.4499 328.467 50.8571 361.056 53.3876 391.924L69.5573 406.013L54.2789 399.558C54.8135 403.085 55.5696 406.575 56.5426 410.007C66.468 444.578 85.8133 469.365 99.7512 465.369C113.689 461.373 116.943 430.109 107.017 395.538C103.94 384.82 98.2943 374.303 91.9699 364.89L83.9424 376.321Z" fill="#F2F2F2"/>
<path d="M325.554 110.774H322.991V40.6105C322.991 35.2774 321.94 29.9966 319.898 25.0695C317.855 20.1424 314.862 15.6656 311.088 11.8945C307.314 8.1235 302.834 5.13215 297.903 3.09129C292.972 1.05042 287.688 0 282.351 0H133.584C122.806 0 112.469 4.27859 104.847 11.8945C97.2257 19.5105 92.9439 29.8399 92.9439 40.6105V425.541C92.9439 430.874 93.9951 436.155 96.0375 441.082C98.0799 446.009 101.073 450.486 104.847 454.257C108.621 458.028 113.101 461.019 118.032 463.06C122.963 465.101 128.247 466.151 133.584 466.151H282.351C293.129 466.151 303.466 461.873 311.087 454.257C318.709 446.641 322.99 436.311 322.99 425.541V160.718H325.554L325.554 110.774Z" fill="#E6E6E6"/>
<path d="M283.99 10.5615H264.573C265.466 12.7494 265.807 15.1232 265.566 17.4737C265.324 19.8243 264.508 22.0794 263.189 24.0405C261.87 26.0016 260.088 27.6084 258.001 28.7194C255.914 29.8304 253.586 30.4114 251.221 30.4113H165.995C163.63 30.4112 161.302 29.83 159.215 28.719C157.129 27.6079 155.347 26.0011 154.028 24.04C152.709 22.0789 151.893 19.8239 151.652 17.4734C151.411 15.1229 151.752 12.7493 152.645 10.5615H134.508C126.458 10.5615 118.739 13.7567 113.047 19.4442C107.355 25.1317 104.158 32.8456 104.158 40.889V425.26C104.158 433.303 107.355 441.017 113.047 446.705C118.739 452.392 126.458 455.588 134.508 455.588H283.99C292.04 455.588 299.759 452.392 305.451 446.705C311.143 441.017 314.34 433.303 314.34 425.26V425.26V40.8883C314.34 32.8451 311.142 25.1313 305.451 19.444C299.759 13.7566 292.04 10.5615 283.99 10.5615V10.5615Z" fill="white"/>
<path d="M190.201 163.675C190.2 160.989 190.908 158.349 192.253 156.023C193.598 153.696 195.532 151.765 197.861 150.422C195.533 149.079 192.892 148.371 190.204 148.371C187.515 148.371 184.874 149.078 182.546 150.421C180.217 151.764 178.284 153.696 176.94 156.022C175.595 158.349 174.887 160.988 174.887 163.674C174.887 166.361 175.595 169 176.94 171.327C178.284 173.653 180.217 175.585 182.546 176.928C184.874 178.271 187.515 178.978 190.204 178.978C192.892 178.978 195.533 178.27 197.861 176.926C195.532 175.585 193.598 173.653 192.253 171.327C190.908 169.001 190.201 166.362 190.201 163.675V163.675Z" fill="#CCCCCC"/>
<path d="M209.454 163.675C209.453 160.989 210.161 158.349 211.506 156.023C212.85 153.696 214.785 151.765 217.114 150.422C214.786 149.079 212.145 148.371 209.456 148.371C206.768 148.371 204.127 149.078 201.798 150.421C199.47 151.764 197.536 153.696 196.192 156.022C194.848 158.349 194.14 160.988 194.14 163.674C194.14 166.361 194.848 169 196.192 171.327C197.536 173.653 199.47 175.585 201.798 176.928C204.127 178.271 206.768 178.978 209.456 178.978C212.145 178.978 214.786 178.27 217.114 176.926C214.785 175.585 212.851 173.653 211.506 171.327C210.161 169.001 209.453 166.362 209.454 163.675V163.675Z" fill="#CCCCCC"/>
<path d="M228.269 178.978C236.727 178.978 243.584 172.126 243.584 163.675C243.584 155.223 236.727 148.371 228.269 148.371C219.811 148.371 212.954 155.223 212.954 163.675C212.954 172.126 219.811 178.978 228.269 178.978Z" fill="#1B2F63"/>
<path d="M253.863 211.473H164.606C163.757 211.472 162.942 211.134 162.341 210.534C161.74 209.933 161.402 209.119 161.401 208.27V119.079C161.402 118.23 161.74 117.416 162.341 116.816C162.942 116.215 163.757 115.877 164.606 115.876H253.863C254.713 115.877 255.528 116.215 256.129 116.816C256.73 117.416 257.068 118.23 257.069 119.079V208.27C257.068 209.119 256.73 209.933 256.129 210.534C255.528 211.134 254.713 211.472 253.863 211.473V211.473ZM164.606 117.158C164.097 117.159 163.608 117.361 163.247 117.722C162.887 118.082 162.684 118.57 162.683 119.08V208.271C162.684 208.78 162.887 209.269 163.247 209.629C163.608 209.989 164.097 210.192 164.606 210.192H253.863C254.373 210.192 254.862 209.989 255.223 209.629C255.583 209.269 255.786 208.78 255.786 208.271V119.08C255.786 118.57 255.583 118.082 255.223 117.722C254.862 117.361 254.373 117.159 253.863 117.158H164.606Z" fill="#CCCCCC"/>
<path d="M273.793 279.842H136.9V281.123H273.793V279.842Z" fill="#CCCCCC"/>
<path d="M141.223 271.843C143.611 271.843 145.546 269.909 145.546 267.523C145.546 265.137 143.611 263.203 141.223 263.203C138.835 263.203 136.9 265.137 136.9 267.523C136.9 269.909 138.835 271.843 141.223 271.843Z" fill="#1B2F63"/>
<path d="M273.793 323.04H136.9V324.321H273.793V323.04Z" fill="#CCCCCC"/>
<path d="M141.223 315.041C143.611 315.041 145.546 313.107 145.546 310.721C145.546 308.335 143.611 306.401 141.223 306.401C138.835 306.401 136.9 308.335 136.9 310.721C136.9 313.107 138.835 315.041 141.223 315.041Z" fill="#1B2F63"/>
<path d="M271.288 372.231H228.026C227.279 372.23 226.562 371.933 226.034 371.405C225.505 370.877 225.208 370.161 225.207 369.414V354.262C225.208 353.516 225.505 352.8 226.034 352.272C226.562 351.744 227.279 351.447 228.026 351.446H271.288C272.035 351.447 272.752 351.744 273.28 352.272C273.809 352.8 274.106 353.516 274.107 354.262V369.414C274.106 370.161 273.809 370.877 273.28 371.405C272.752 371.933 272.035 372.23 271.288 372.231V372.231Z" fill="#1B2F63"/>
<path d="M155.325 271.843C157.713 271.843 159.648 269.909 159.648 267.523C159.648 265.137 157.713 263.203 155.325 263.203C152.937 263.203 151.002 265.137 151.002 267.523C151.002 269.909 152.937 271.843 155.325 271.843Z" fill="#1B2F63"/>
<path d="M169.427 271.843C171.815 271.843 173.75 269.909 173.75 267.523C173.75 265.137 171.815 263.203 169.427 263.203C167.039 263.203 165.104 265.137 165.104 267.523C165.104 269.909 167.039 271.843 169.427 271.843Z" fill="#1B2F63"/>
<path d="M155.325 315.041C157.713 315.041 159.648 313.107 159.648 310.721C159.648 308.335 157.713 306.401 155.325 306.401C152.937 306.401 151.002 308.335 151.002 310.721C151.002 313.107 152.937 315.041 155.325 315.041Z" fill="#1B2F63"/>
<path d="M169.427 315.041C171.815 315.041 173.75 313.107 173.75 310.721C173.75 308.335 171.815 306.401 169.427 306.401C167.039 306.401 165.104 308.335 165.104 310.721C165.104 313.107 167.039 315.041 169.427 315.041Z" fill="#1B2F63"/>
<path d="M353.694 306.355C354.001 306.496 354.297 306.66 354.578 306.848L382.672 294.866L383.674 287.471L394.9 287.402L394.237 304.363L357.156 314.162C357.078 314.42 356.984 314.672 356.876 314.919C356.34 316.062 355.477 317.021 354.398 317.676C353.318 318.331 352.068 318.653 350.806 318.601C349.544 318.548 348.325 318.125 347.303 317.383C346.281 316.64 345.501 315.613 345.061 314.43C344.622 313.246 344.542 311.959 344.831 310.731C345.121 309.502 345.768 308.386 346.69 307.523C347.613 306.661 348.769 306.09 350.016 305.882C351.262 305.674 352.541 305.839 353.694 306.355V306.355Z" fill="#FFB8B8"/>
<path d="M398.982 460.052H391.303L387.65 430.454L398.984 430.455L398.982 460.052Z" fill="#FFB8B8"/>
<path d="M385.818 457.859H400.628V467.177H376.494C376.494 464.705 377.476 462.336 379.225 460.588C380.973 458.841 383.345 457.859 385.818 457.859Z" fill="#1C2434"/>
<path d="M428.848 457.883L421.205 458.636L414.665 429.539L425.944 428.429L428.848 457.883Z" fill="#FFB8B8"/>
<path d="M415.532 456.991L430.27 455.54L431.184 464.813L407.166 467.177C407.046 465.959 407.167 464.73 407.523 463.559C407.878 462.388 408.461 461.299 409.238 460.353C410.015 459.407 410.97 458.623 412.05 458.046C413.13 457.469 414.313 457.111 415.532 456.991Z" fill="#1C2434"/>
<path d="M401.12 256.078C409.616 256.078 416.504 249.196 416.504 240.706C416.504 232.215 409.616 225.333 401.12 225.333C392.623 225.333 385.736 232.215 385.736 240.706C385.736 249.196 392.623 256.078 401.12 256.078Z" fill="#FFB8B8"/>
<path d="M389.588 454.066C388.928 454.068 388.288 453.836 387.782 453.413C387.276 452.99 386.936 452.401 386.822 451.752C382.847 429.704 369.855 357.613 369.545 355.616C369.538 355.57 369.534 355.523 369.535 355.477V350.102C369.534 349.906 369.595 349.715 369.71 349.556L371.426 347.154C371.508 347.038 371.615 346.943 371.739 346.875C371.863 346.807 372.001 346.769 372.142 346.763C381.927 346.304 413.974 344.961 415.522 346.893C417.077 348.836 416.527 354.721 416.401 355.882L416.407 356.003L430.805 448.007C430.917 448.741 430.736 449.49 430.301 450.091C429.865 450.693 429.211 451.099 428.478 451.221L419.485 452.702C418.816 452.809 418.13 452.673 417.552 452.318C416.974 451.962 416.543 451.412 416.338 450.766C413.556 441.885 404.231 412.011 400.999 400.452C400.978 400.378 400.932 400.315 400.869 400.273C400.805 400.232 400.729 400.215 400.653 400.225C400.578 400.236 400.509 400.273 400.46 400.331C400.41 400.389 400.383 400.462 400.384 400.538C400.546 411.558 400.936 439.672 401.071 449.382L401.085 450.428C401.091 451.136 400.831 451.82 400.357 452.346C399.882 452.872 399.227 453.2 398.522 453.267L389.851 454.054C389.763 454.062 389.674 454.066 389.588 454.066Z" fill="#1C2434"/>
<path d="M391.357 262.123C388.672 263.718 387.065 266.649 386.143 269.631C384.437 275.152 383.409 280.861 383.084 286.63L382.11 303.905L370.049 349.702C380.502 358.54 386.532 356.532 400.603 349.302C414.675 342.073 416.283 351.713 416.283 351.713L419.097 312.745L423.117 270.164C422.214 269.078 421.193 268.096 420.072 267.238C416.356 264.351 412.032 262.344 407.427 261.368C402.822 260.393 398.056 260.475 393.487 261.608L391.357 262.123Z" fill="#1B2F63"/>
<path d="M387.439 315.605C387.763 315.726 388.077 315.874 388.379 316.045L416.157 302.152L416.618 294.625L428.077 293.836L428.691 310.993L391.569 323.261C391.266 324.56 390.574 325.736 389.585 326.633C388.597 327.529 387.359 328.104 386.036 328.281C384.712 328.457 383.367 328.227 382.178 327.62C380.989 327.014 380.012 326.06 379.379 324.886C378.746 323.712 378.485 322.373 378.632 321.047C378.778 319.721 379.326 318.471 380.201 317.463C381.076 316.456 382.237 315.738 383.53 315.406C384.823 315.074 386.186 315.143 387.439 315.605Z" fill="#FFB8B8"/>
<path d="M422.915 270.359C429.75 272.769 430.954 298.883 430.954 298.883C422.913 294.464 413.264 301.696 413.264 301.696C413.264 301.696 411.254 294.866 408.842 286.028C408.114 283.542 408.027 280.912 408.589 278.383C409.151 275.855 410.345 273.509 412.058 271.566C412.058 271.566 416.081 267.947 422.915 270.359Z" fill="#1B2F63"/>
<path d="M414.914 244.771C412.997 243.239 410.382 246.024 410.382 246.024L408.848 232.233C408.848 232.233 399.264 233.38 393.131 231.85C386.997 230.32 386.038 237.405 386.038 237.405C385.722 234.543 385.658 231.659 385.847 228.786C386.23 225.338 391.214 221.891 400.031 219.592C408.848 217.293 413.448 227.254 413.448 227.254C419.583 230.318 416.83 246.304 414.914 244.771Z" fill="#1C2434"/>
</g>
<defs>
<clipPath id="clip0_206_1700">
<rect width="466.547" height="467.597" fill="white"/>
</clipPath>
</defs>
</svg>
